<svg preserveAspectRatio="none" overflow="visible" style="display: block;" width="358" height="46" viewBox="0 0 358 46" fill="none" xmlns="http://www.w3.org/2000/svg">
<g id="kakao_login_kr_large 1">
<rect width="358" height="46" rx="4" fill="#FEE500"/>
<path id="Vector" d="M135 16.5234C131.421 16.5234 128.521 19.0046 128.521 22.065C128.521 24.0321 129.721 25.7605 131.528 26.7432L130.917 29.2122C130.894 29.2859 130.912 29.3649 130.961 29.4193C130.997 29.4579 131.045 29.4789 131.092 29.4789C131.133 29.4789 131.173 29.4649 131.207 29.435L133.833 27.5153C134.211 27.5732 134.6 27.6048 134.998 27.6048C138.576 27.6048 141.477 25.1235 141.477 22.0632C141.477 19.0029 138.577 16.5234 135 16.5234Z" fill="#191919"/>
<path id="Vector_2" d="M156.087 17.9521C156.072 21.8193 154.886 25.2617 150.096 27.6201L149.334 26.5801C151.707 25.4155 153.121 24.0019 153.904 22.332L149.612 22.7422L149.407 21.541L154.329 21.2041C154.527 20.5376 154.644 19.8271 154.695 19.0801H150.096V17.9521H156.087ZM159.485 16.6191V21.8633H161.521V23.0058H159.485V29.7295H158.094V16.6191H159.485ZM169.051 17.9521C169.036 21.8193 167.85 25.2617 163.06 27.6201L162.298 26.5801C164.671 25.4155 166.084 24.0019 166.868 22.332L162.576 22.7422L162.371 21.541L167.293 21.2041C167.491 20.5376 167.608 19.8271 167.659 19.0801H163.06V17.9521H169.051ZM172.449 16.6191V21.8633H174.485V23.0058H172.449V29.7295H171.058V16.6191H172.449ZM181.165 17.4101C183.978 17.4248 186.014 18.8017 186.014 20.8965C186.014 22.8667 184.307 24.1631 181.854 24.3681V26.9463H187.2V28.1035H175.188V26.9463H180.477V24.3681C178.038 24.1631 176.331 22.8667 176.331 20.8965C176.331 18.8017 178.367 17.4248 181.165 17.4101ZM181.165 18.5527C179.144 18.5381 177.679 19.4756 177.679 20.8965C177.679 22.376 179.144 23.2842 181.165 23.2988C183.201 23.2842 184.666 22.376 184.666 20.8965C184.666 19.4756 183.201 18.5381 181.165 18.5527ZM203.826 27.0049V28.1767H191.814V27.0049H197.103V24.7051H193.279V20.5302H200.984V18.6845H193.25V17.542H202.361V21.6435H194.656V23.5625H202.669V24.7051H198.479V27.0049H203.826ZM215.179 17.9521V19.3584C215.179 21.0576 215.179 22.9033 214.695 25.7011L213.274 25.5693C213.802 22.9472 213.802 21.0136 213.802 19.3584V19.0947H206.067V17.9521H215.179ZM216.746 26.7265V27.8838H204.778V26.7265H216.746ZM228.626 16.6338V26.1699H227.234V16.6338H228.626ZM229.021 28.3379V29.4658H220.042V25.2031H221.448V28.3379H229.021ZM221.507 17.5127C223.484 17.5127 224.993 18.8603 224.993 20.7646C224.993 22.6982 223.484 24.0312 221.507 24.0312C219.529 24.0312 218.006 22.6982 218.006 20.7646C218.006 18.8603 219.529 17.5127 221.507 17.5127ZM221.507 18.7285C220.276 18.7285 219.368 19.5635 219.368 20.7646C219.368 21.9951 220.276 22.8154 221.507 22.8154C222.708 22.8154 223.631 21.9951 223.631 20.7646C223.631 19.5635 222.708 18.7285 221.507 18.7285Z" fill="#191919"/>
</g>
</svg>
