<svg preserveAspectRatio="none" overflow="visible" style="display: block;" width="20.55" height="20.55" viewBox="0 0 20.55 20.55" fill="none" xmlns="http://www.w3.org/2000/svg">
<g id="Group 219">
<path id="Vector" d="M8.4 3.4V8.4H3.4C2.01875 8.4 0.9 7.28125 0.9 5.9V4.65C0.9 2.58125 2.58125 0.9 4.65 0.9L5.9 0.9C7.28125 0.9 8.4 2.01875 8.4 3.4Z" stroke="#7D7979" stroke-width="1.8" stroke-linecap="round" stroke-linejoin="round"/>
<path id="Vector_2" d="M8.4 12.15V17.15C8.4 18.5312 7.28125 19.65 5.9 19.65H4.65C2.58125 19.65 0.9 17.9687 0.9 15.9V14.65C0.9 13.2687 2.01875 12.15 3.4 12.15H8.4Z" stroke="#7D7979" stroke-width="1.8" stroke-linecap="round" stroke-linejoin="round"/>
<path id="Vector_3" d="M19.65 4.65V5.9C19.65 7.28125 18.5312 8.4 17.15 8.4H12.15V3.4C12.15 2.01875 13.2687 0.9 14.65 0.9L15.9 0.9C17.9687 0.9 19.65 2.58125 19.65 4.65Z" stroke="#7D7979" stroke-width="1.8" stroke-linecap="round" stroke-linejoin="round"/>
<path id="Vector_4" d="M19.65 14.65V15.9C19.65 17.9687 17.9687 19.65 15.9 19.65H14.65C13.2687 19.65 12.15 18.5312 12.15 17.15V12.15H17.15C18.5312 12.15 19.65 13.2687 19.65 14.65Z" stroke="#7D7979" stroke-width="1.8" stroke-linecap="round" stroke-linejoin="round"/>
</g>
</svg>
