<svg xmlns="http://www.w3.org/2000/svg" width="80" height="80" viewBox="0 0 80 80" fill="none"><rect x="0.5" y="0.5" width="79" height="79" rx="19.5" fill="white" />
<rect x="0.5" y="0.5" width="79" height="79" rx="19.5" stroke="#E4E9F1" />
<g id="Layer_1" clip-path="url(#clip0_0_1)">
<path id="Vector" d="M26.4926 48.159C26.1452 50.0673 27.1216 50.6814 28.8174 50.6814C30.0194 50.6814 31.3678 50.2254 31.6395 49.0218C31.9688 47.5926 29.8366 47.3193 27.7752 46.6574C25.7138 45.9955 23.6788 44.9549 24.3538 41.9781C25.1573 38.4349 28.8388 37.0469 31.7136 37.0469C34.7613 37.0469 37.4763 38.616 36.6662 42.2761H32.6768C33.0753 40.7943 31.8733 40.3201 30.6516 40.3201C29.7922 40.3201 28.6479 40.6362 28.4075 41.7064C28.1226 42.9561 30.2812 43.1883 32.359 43.8469C34.4369 44.5055 36.4028 45.5938 35.7409 48.5245C34.8074 52.6407 31.2048 53.9579 27.8378 53.9579C24.3176 53.9579 21.5811 52.323 22.4966 48.1656L26.4926 48.159Z" fill="#005EA1" />
<path id="Vector_2" d="M54.1037 37.3867H58.0932L54.4166 53.6095H50.4238L54.1037 37.3867Z" fill="#005EA1" />
<path id="Vector_3" d="M39.5614 37.3886H46.7252C49.3744 37.3441 52.1059 38.0686 51.3354 41.4554C51.0061 42.9093 49.9227 44.0898 48.5775 44.727C50.0956 45.2209 50.7641 46.7275 50.3475 48.5666C49.4749 52.4309 46.526 53.6164 43.2429 53.6164H35.8848L39.5614 37.3886ZM42.1035 43.7737H45.1923C45.8789 43.7737 46.9096 43.3851 47.1681 42.2276C47.4266 41.0701 46.7318 40.6585 45.8954 40.6585H42.8082L42.1035 43.7737ZM40.6398 50.2246H43.8389C45.1034 50.2246 46.0897 49.7455 46.3959 48.4135C46.7252 46.981 45.8839 46.5035 44.6819 46.5035H41.4845L40.6398 50.2246Z" fill="#005EA1" />
<path id="Vector_4" d="M63.6674 30.8714C61.4611 25.0132 48.8392 24.3448 35.4796 29.3764C25.9514 32.9658 18.6229 38.4864 16 43.4852C19.6223 39.6982 25.4805 35.9772 32.5455 33.3132C45.9068 28.2799 58.5271 28.95 60.7334 34.8098C61.3689 36.4892 61.0742 38.414 60.0188 40.426C63.2492 37.054 64.7063 33.6309 63.6674 30.8764" fill="#EC303C" />
</g>
<defs>
<clipPath id="clip0_0_1">
<rect width="48" height="27.9507" fill="white" transform="translate(16 26)" />
</clipPath>
</defs>
</svg>